  0
SECTION
  2
HEADER
  9
$ACADVER
  1
AC1009
  9
$INSUNITS
  70
4
  9
$EXTMIN
  10
-5.7
  20
-0.9
  9
$EXTMAX
  10
-1.4
  20
3.7
  0
ENDSEC
  0
SECTION
  2
TABLES
  0
TABLE
  2
LTYPE
  70
1
  0
LTYPE
  2
CONTINUOUS
  70
64
  3
Solid line
  72
65
  73
0
  40
0
  0
ENDTAB
  0
TABLE
  2
LAYER
  70
1
  0
LAYER
  2
Error
  70
0
  62
1
  6
CONTINUOUS
  0
ENDTAB
  0
ENDSEC
  0
SECTION
  2
BLOCKS
  0
ENDSEC
  0
SECTION
  2
ENTITIES
  0
POLYLINE
  8
Error
  70
0
  66
1
  0
VERTEX
  8
Error
  10
-1.8
  20
3
  0
VERTEX
  8
Error
  10
-2.3
  20
3.5
  0
VERTEX
  8
Error
  10
-2.1
  20
3.7
  0
VERTEX
  8
Error
  10
-2.6
  20
3.7
  0
VERTEX
  8
Error
  10
-3.3
  20
3
  0
VERTEX
  8
Error
  10
-3.3
  20
1.9
  0
VERTEX
  8
Error
  10
-5
  20
0.2
  0
VERTEX
  8
Error
  10
-5
  20
-0.5
  0
VERTEX
  8
Error
  10
-5.4
  20
-0.1
  0
VERTEX
  8
Error
  10
-5.4
  20
1.2
  0
VERTEX
  8
Error
  10
-4.4
  20
2.2
  0
VERTEX
  8
Error
  10
-4.4
  20
2.9
  0
VERTEX
  8
Error
  10
-5
  20
3.5
  0
VERTEX
  8
Error
  10
-5.2
  20
3.3
  0
VERTEX
  8
Error
  10
-4.7
  20
2.8
  0
VERTEX
  8
Error
  10
-4.7
  20
2.3
  0
VERTEX
  8
Error
  10
-5.7
  20
1.3
  0
VERTEX
  8
Error
  10
-5.7
  20
-0.2
  0
VERTEX
  8
Error
  10
-5
  20
-0.9
  0
VERTEX
  8
Error
  10
-2.6
  20
-0.9
  0
VERTEX
  8
Error
  10
-2.8
  20
-0.7
  0
VERTEX
  8
Error
  10
-2.1
  20
-0.7
  0
VERTEX
  8
Error
  10
-1.9
  20
-0.9
  0
VERTEX
  8
Error
  10
-1.4
  20
-0.9
  0
VERTEX
  8
Error
  10
-2.2
  20
-0.1
  0
VERTEX
  8
Error
  10
-2.2
  20
0.7
  0
VERTEX
  8
Error
  10
-2
  20
0.9
  0
VERTEX
  8
Error
  10
-2
  20
2.1
  0
VERTEX
  8
Error
  10
-2.2
  20
2.3
  0
VERTEX
  8
Error
  10
-2.2
  20
2.5
  0
VERTEX
  8
Error
  10
-1.6
  20
2.5
  0
VERTEX
  8
Error
  10
-1.6
  20
2.8
  0
VERTEX
  8
Error
  10
-1.8
  20
3
  0
SEQEND
  0
ENDSEC
  0
EOF
