  0
SECTION
  2
HEADER
  9
$ACADVER
  1
AC1009
  9
$INSUNITS
  70
4
  9
$EXTMIN
  10
-4.604
  20
-1.104
  9
$EXTMAX
  10
0.404
  20
3.904
  0
ENDSEC
  0
SECTION
  2
TABLES
  0
TABLE
  2
LTYPE
  70
1
  0
LTYPE
  2
CONTINUOUS
  70
64
  3
Solid line
  72
65
  73
0
  40
0
  0
ENDTAB
  0
TABLE
  2
LAYER
  70
1
  0
LAYER
  2
NA
  70
0
  62
136
  6
CONTINUOUS
  0
ENDTAB
  0
ENDSEC
  0
SECTION
  2
BLOCKS
  0
ENDSEC
  0
SECTION
  2
ENTITIES
  0
POLYLINE
  8
NA
  70
1
  66
1
  0
VERTEX
  8
NA
  10
-2.024
  20
3.898
  0
VERTEX
  8
NA
  10
-1.961
  20
3.895
  0
VERTEX
  8
NA
  10
-1.826
  20
3.882
  0
VERTEX
  8
NA
  10
-1.807
  20
3.879
  0
VERTEX
  8
NA
  10
-1.665
  20
3.866
  0
VERTEX
  8
NA
  10
-1.3
  20
3.768
  0
VERTEX
  8
NA
  10
-1.3
  20
3.613
  0
VERTEX
  8
NA
  10
-1.303
  20
3.614
  0
VERTEX
  8
NA
  10
-1.3
  20
3.6
  0
VERTEX
  8
NA
  10
-1.312
  20
3.548
  0
VERTEX
  8
NA
  10
-1.348
  20
3.497
  0
VERTEX
  8
NA
  10
-1.407
  20
3.45
  0
VERTEX
  8
NA
  10
-1.487
  20
3.407
  0
VERTEX
  8
NA
  10
-1.586
  20
3.37
  0
VERTEX
  8
NA
  10
-1.7
  20
3.34
  0
VERTEX
  8
NA
  10
-1.826
  20
3.318
  0
VERTEX
  8
NA
  10
-1.961
  20
3.305
  0
VERTEX
  8
NA
  10
-2.1
  20
3.3
  0
VERTEX
  8
NA
  10
-2.11
  20
3.3
  0
VERTEX
  8
NA
  10
-2.106
  20
3.4
  0
VERTEX
  8
NA
  10
-2.1
  20
3.4
  0
VERTEX
  8
NA
  10
-1.996
  20
3.403
  0
VERTEX
  8
NA
  10
-1.895
  20
3.412
  0
VERTEX
  8
NA
  10
-1.8
  20
3.427
  0
VERTEX
  8
NA
  10
-1.714
  20
3.447
  0
VERTEX
  8
NA
  10
-1.64
  20
3.471
  0
VERTEX
  8
NA
  10
-1.58
  20
3.5
  0
VERTEX
  8
NA
  10
-1.536
  20
3.532
  0
VERTEX
  8
NA
  10
-1.509
  20
3.565
  0
VERTEX
  8
NA
  10
-1.5
  20
3.6
  0
VERTEX
  8
NA
  10
-1.509
  20
3.635
  0
VERTEX
  8
NA
  10
-1.536
  20
3.668
  0
VERTEX
  8
NA
  10
-1.555
  20
3.682
  0
VERTEX
  8
NA
  10
-1.691
  20
3.718
  0
VERTEX
  8
NA
  10
-2.1
  20
3.754
  0
VERTEX
  8
NA
  10
-2.509
  20
3.718
  0
VERTEX
  8
NA
  10
-2.645
  20
3.682
  0
VERTEX
  8
NA
  10
-2.664
  20
3.668
  0
VERTEX
  8
NA
  10
-2.691
  20
3.635
  0
VERTEX
  8
NA
  10
-2.7
  20
3.6
  0
VERTEX
  8
NA
  10
-2.691
  20
3.565
  0
VERTEX
  8
NA
  10
-2.664
  20
3.532
  0
VERTEX
  8
NA
  10
-2.62
  20
3.5
  0
VERTEX
  8
NA
  10
-2.56
  20
3.471
  0
VERTEX
  8
NA
  10
-2.486
  20
3.447
  0
VERTEX
  8
NA
  10
-2.4
  20
3.427
  0
VERTEX
  8
NA
  10
-2.305
  20
3.412
  0
VERTEX
  8
NA
  10
-2.204
  20
3.403
  0
VERTEX
  8
NA
  10
-2.106
  20
3.4
  0
VERTEX
  8
NA
  10
-2.11
  20
3.3
  0
VERTEX
  8
NA
  10
-2.239
  20
3.305
  0
VERTEX
  8
NA
  10
-2.374
  20
3.318
  0
VERTEX
  8
NA
  10
-2.5
  20
3.34
  0
VERTEX
  8
NA
  10
-2.614
  20
3.37
  0
VERTEX
  8
NA
  10
-2.713
  20
3.407
  0
VERTEX
  8
NA
  10
-2.793
  20
3.45
  0
VERTEX
  8
NA
  10
-2.852
  20
3.497
  0
VERTEX
  8
NA
  10
-2.888
  20
3.548
  0
VERTEX
  8
NA
  10
-2.9
  20
3.6
  0
VERTEX
  8
NA
  10
-2.897
  20
3.614
  0
VERTEX
  8
NA
  10
-2.905
  20
3.612
  0
VERTEX
  8
NA
  10
-3.277
  20
3.439
  0
VERTEX
  8
NA
  10
-3.613
  20
3.203
  0
VERTEX
  8
NA
  10
-3.903
  20
2.913
  0
VERTEX
  8
NA
  10
-3.977
  20
2.808
  0
VERTEX
  8
NA
  10
-3.919
  20
2.85
  0
VERTEX
  8
NA
  10
-3.745
  20
2.933
  0
VERTEX
  8
NA
  10
-3.745
  20
2.75
  0
VERTEX
  8
NA
  10
-3.885
  20
2.671
  0
VERTEX
  8
NA
  10
-3.971
  20
2.587
  0
VERTEX
  8
NA
  10
-4
  20
2.5
  0
VERTEX
  8
NA
  10
-3.971
  20
2.413
  0
VERTEX
  8
NA
  10
-3.885
  20
2.329
  0
VERTEX
  8
NA
  10
-3.745
  20
2.25
  0
VERTEX
  8
NA
  10
-3.555
  20
2.179
  0
VERTEX
  8
NA
  10
-3.321
  20
2.117
  0
VERTEX
  8
NA
  10
-3.262
  20
2.106
  0
VERTEX
  8
NA
  10
-2.988
  20
2.147
  0
VERTEX
  8
NA
  10
-3.284
  20
2.443
  0
VERTEX
  8
NA
  10
-3.303
  20
2.434
  0
VERTEX
  8
NA
  10
-3.351
  20
2.421
  0
VERTEX
  8
NA
  10
-3.4
  20
2.417
  0
VERTEX
  8
NA
  10
-3.449
  20
2.421
  0
VERTEX
  8
NA
  10
-3.497
  20
2.434
  0
VERTEX
  8
NA
  10
-3.541
  20
2.455
  0
VERTEX
  8
NA
  10
-3.582
  20
2.483
  0
VERTEX
  8
NA
  10
-3.617
  20
2.518
  0
VERTEX
  8
NA
  10
-3.645
  20
2.559
  0
VERTEX
  8
NA
  10
-3.666
  20
2.603
  0
VERTEX
  8
NA
  10
-3.679
  20
2.651
  0
VERTEX
  8
NA
  10
-3.683
  20
2.7
  0
VERTEX
  8
NA
  10
-3.679
  20
2.749
  0
VERTEX
  8
NA
  10
-3.671
  20
2.778
  0
VERTEX
  8
NA
  10
-3.745
  20
2.75
  0
VERTEX
  8
NA
  10
-3.745
  20
2.933
  0
VERTEX
  8
NA
  10
-3.709
  20
2.95
  0
VERTEX
  8
NA
  10
-3.45
  20
3.036
  0
VERTEX
  8
NA
  10
-3.15
  20
3.106
  0
VERTEX
  8
NA
  10
-2.818
  20
3.158
  0
VERTEX
  8
NA
  10
-2.465
  20
3.189
  0
VERTEX
  8
NA
  10
-2.43
  20
3.19
  0
VERTEX
  8
NA
  10
-2.43
  20
2.992
  0
VERTEX
  8
NA
  10
-2.75
  20
2.97
  0
VERTEX
  8
NA
  10
-3.05
  20
2.933
  0
VERTEX
  8
NA
  10
-3.206
  20
2.904
  0
VERTEX
  8
NA
  10
-3.183
  20
2.882
  0
VERTEX
  8
NA
  10
-3.155
  20
2.841
  0
VERTEX
  8
NA
  10
-3.134
  20
2.797
  0
VERTEX
  8
NA
  10
-3.121
  20
2.749
  0
VERTEX
  8
NA
  10
-3.117
  20
2.7
  0
VERTEX
  8
NA
  10
-3.121
  20
2.651
  0
VERTEX
  8
NA
  10
-3.134
  20
2.603
  0
VERTEX
  8
NA
  10
-3.143
  20
2.584
  0
VERTEX
  8
NA
  10
-2.73
  20
2.171
  0
VERTEX
  8
NA
  10
-2.534
  20
2.188
  0
VERTEX
  8
NA
  10
-2.1
  20
2.2
  0
VERTEX
  8
NA
  10
-1.666
  20
2.188
  0
VERTEX
  8
NA
  10
-1.245
  20
2.152
  0
VERTEX
  8
NA
  10
-0.938
  20
2.106
  0
VERTEX
  8
NA
  10
-0.879
  20
2.117
  0
VERTEX
  8
NA
  10
-0.645
  20
2.179
  0
VERTEX
  8
NA
  10
-0.455
  20
2.25
  0
VERTEX
  8
NA
  10
-0.315
  20
2.329
  0
VERTEX
  8
NA
  10
-0.229
  20
2.413
  0
VERTEX
  8
NA
  10
-0.2
  20
2.5
  0
VERTEX
  8
NA
  10
-0.229
  20
2.587
  0
VERTEX
  8
NA
  10
-0.315
  20
2.671
  0
VERTEX
  8
NA
  10
-0.455
  20
2.75
  0
VERTEX
  8
NA
  10
-0.645
  20
2.821
  0
VERTEX
  8
NA
  10
-0.879
  20
2.883
  0
VERTEX
  8
NA
  10
-1.15
  20
2.933
  0
VERTEX
  8
NA
  10
-1.45
  20
2.97
  0
VERTEX
  8
NA
  10
-1.77
  20
2.992
  0
VERTEX
  8
NA
  10
-2.1
  20
3
  0
VERTEX
  8
NA
  10
-2.43
  20
2.992
  0
VERTEX
  8
NA
  10
-2.43
  20
3.19
  0
VERTEX
  8
NA
  10
-2.1
  20
3.2
  0
VERTEX
  8
NA
  10
-1.735
  20
3.189
  0
VERTEX
  8
NA
  10
-1.382
  20
3.158
  0
VERTEX
  8
NA
  10
-1.05
  20
3.106
  0
VERTEX
  8
NA
  10
-0.75
  20
3.036
  0
VERTEX
  8
NA
  10
-0.491
  20
2.95
  0
VERTEX
  8
NA
  10
-0.281
  20
2.85
  0
VERTEX
  8
NA
  10
-0.223
  20
2.808
  0
VERTEX
  8
NA
  10
-0.297
  20
2.913
  0
VERTEX
  8
NA
  10
-0.587
  20
3.203
  0
VERTEX
  8
NA
  10
-0.923
  20
3.439
  0
VERTEX
  8
NA
  10
-1.295
  20
3.612
  0
VERTEX
  8
NA
  10
-1.3
  20
3.613
  0
VERTEX
  8
NA
  10
-1.3
  20
3.768
  0
VERTEX
  8
NA
  10
-1.244
  20
3.753
  0
VERTEX
  8
NA
  10
-0.848
  20
3.569
  0
VERTEX
  8
NA
  10
-0.49
  20
3.318
  0
VERTEX
  8
NA
  10
-0.182
  20
3.01
  0
VERTEX
  8
NA
  10
0.069
  20
2.652
  0
VERTEX
  8
NA
  10
0.196
  20
2.378
  0
VERTEX
  8
NA
  10
0.031
  20
2.378
  0
VERTEX
  8
NA
  10
-0.009
  20
2.465
  0
VERTEX
  8
NA
  10
-0.032
  20
2.378
  0
VERTEX
  8
NA
  10
-0.127
  20
2.261
  0
VERTEX
  8
NA
  10
-0.281
  20
2.15
  0
VERTEX
  8
NA
  10
-0.491
  20
2.05
  0
VERTEX
  8
NA
  10
-0.559
  20
2.028
  0
VERTEX
  8
NA
  10
-0.493
  20
2.013
  0
VERTEX
  8
NA
  10
-0.185
  20
1.914
  0
VERTEX
  8
NA
  10
0.065
  20
1.8
  0
VERTEX
  8
NA
  10
0.229
  20
1.687
  0
VERTEX
  8
NA
  10
0.218
  20
1.809
  0
VERTEX
  8
NA
  10
0.112
  20
2.205
  0
VERTEX
  8
NA
  10
0.031
  20
2.378
  0
VERTEX
  8
NA
  10
0.196
  20
2.378
  0
VERTEX
  8
NA
  10
0.253
  20
2.256
  0
VERTEX
  8
NA
  10
0.366
  20
1.835
  0
VERTEX
  8
NA
  10
0.404
  20
1.4
  0
VERTEX
  8
NA
  10
0.369
  20
1
  0
VERTEX
  8
NA
  10
0.219
  20
1
  0
VERTEX
  8
NA
  10
0.229
  20
1.113
  0
VERTEX
  8
NA
  10
0.065
  20
1
  0
VERTEX
  8
NA
  10
-0.185
  20
0.886
  0
VERTEX
  8
NA
  10
-0.493
  20
0.787
  0
VERTEX
  8
NA
  10
-0.738
  20
0.732
  0
VERTEX
  8
NA
  10
-0.786
  20
0.91
  0
VERTEX
  8
NA
  10
-0.622
  20
0.94
  0
VERTEX
  8
NA
  10
-0.338
  20
1.014
  0
VERTEX
  8
NA
  10
-0.108
  20
1.1
  0
VERTEX
  8
NA
  10
0.061
  20
1.195
  0
VERTEX
  8
NA
  10
0.165
  20
1.296
  0
VERTEX
  8
NA
  10
0.2
  20
1.4
  0
VERTEX
  8
NA
  10
0.165
  20
1.504
  0
VERTEX
  8
NA
  10
0.061
  20
1.605
  0
VERTEX
  8
NA
  10
-0.108
  20
1.7
  0
VERTEX
  8
NA
  10
-0.338
  20
1.786
  0
VERTEX
  8
NA
  10
-0.622
  20
1.86
  0
VERTEX
  8
NA
  10
-0.944
  20
1.919
  0
VERTEX
  8
NA
  10
-1.05
  20
1.894
  0
VERTEX
  8
NA
  10
-1.382
  20
1.842
  0
VERTEX
  8
NA
  10
-1.735
  20
1.811
  0
VERTEX
  8
NA
  10
-2.1
  20
1.8
  0
VERTEX
  8
NA
  10
-2.366
  20
1.808
  0
VERTEX
  8
NA
  10
-1.42
  20
0.861
  0
VERTEX
  8
NA
  10
-1.382
  20
0.858
  0
VERTEX
  8
NA
  10
-1.274
  20
0.841
  0
VERTEX
  8
NA
  10
-0.95
  20
0.88
  0
VERTEX
  8
NA
  10
-0.786
  20
0.91
  0
VERTEX
  8
NA
  10
-0.738
  20
0.732
  0
VERTEX
  8
NA
  10
-0.491
  20
0.65
  0
VERTEX
  8
NA
  10
-0.281
  20
0.55
  0
VERTEX
  8
NA
  10
-0.127
  20
0.439
  0
VERTEX
  8
NA
  10
-0.032
  20
0.322
  0
VERTEX
  8
NA
  10
-0.026
  20
0.299
  0
VERTEX
  8
NA
  10
0.112
  20
0.595
  0
VERTEX
  8
NA
  10
0.218
  20
0.991
  0
VERTEX
  8
NA
  10
0.219
  20
1
  0
VERTEX
  8
NA
  10
0.369
  20
1
  0
VERTEX
  8
NA
  10
0.366
  20
0.965
  0
VERTEX
  8
NA
  10
0.253
  20
0.544
  0
VERTEX
  8
NA
  10
0.069
  20
0.148
  0
VERTEX
  8
NA
  10
-0.182
  20
-0.21
  0
VERTEX
  8
NA
  10
-0.49
  20
-0.518
  0
VERTEX
  8
NA
  10
-0.848
  20
-0.769
  0
VERTEX
  8
NA
  10
-1.244
  20
-0.953
  0
VERTEX
  8
NA
  10
-1.665
  20
-1.066
  0
VERTEX
  8
NA
  10
-1.807
  20
-1.079
  0
VERTEX
  8
NA
  10
-1.826
  20
-1.082
  0
VERTEX
  8
NA
  10
-1.961
  20
-1.095
  0
VERTEX
  8
NA
  10
-1.961
  20
-0.942
  0
VERTEX
  8
NA
  10
-1.691
  20
-0.918
  0
VERTEX
  8
NA
  10
-1.555
  20
-0.882
  0
VERTEX
  8
NA
  10
-1.536
  20
-0.868
  0
VERTEX
  8
NA
  10
-1.509
  20
-0.835
  0
VERTEX
  8
NA
  10
-1.5
  20
-0.8
  0
VERTEX
  8
NA
  10
-1.509
  20
-0.765
  0
VERTEX
  8
NA
  10
-1.536
  20
-0.732
  0
VERTEX
  8
NA
  10
-1.58
  20
-0.7
  0
VERTEX
  8
NA
  10
-1.64
  20
-0.671
  0
VERTEX
  8
NA
  10
-1.714
  20
-0.647
  0
VERTEX
  8
NA
  10
-1.8
  20
-0.627
  0
VERTEX
  8
NA
  10
-1.895
  20
-0.612
  0
VERTEX
  8
NA
  10
-1.996
  20
-0.603
  0
VERTEX
  8
NA
  10
-2.094
  20
-0.6
  0
VERTEX
  8
NA
  10
-2.09
  20
-0.5
  0
VERTEX
  8
NA
  10
-1.961
  20
-0.505
  0
VERTEX
  8
NA
  10
-1.826
  20
-0.518
  0
VERTEX
  8
NA
  10
-1.7
  20
-0.54
  0
VERTEX
  8
NA
  10
-1.586
  20
-0.57
  0
VERTEX
  8
NA
  10
-1.487
  20
-0.607
  0
VERTEX
  8
NA
  10
-1.407
  20
-0.65
  0
VERTEX
  8
NA
  10
-1.348
  20
-0.697
  0
VERTEX
  8
NA
  10
-1.312
  20
-0.748
  0
VERTEX
  8
NA
  10
-1.3
  20
-0.8
  0
VERTEX
  8
NA
  10
-1.303
  20
-0.814
  0
VERTEX
  8
NA
  10
-1.295
  20
-0.812
  0
VERTEX
  8
NA
  10
-0.923
  20
-0.639
  0
VERTEX
  8
NA
  10
-0.587
  20
-0.403
  0
VERTEX
  8
NA
  10
-0.381
  20
-0.197
  0
VERTEX
  8
NA
  10
-0.491
  20
-0.25
  0
VERTEX
  8
NA
  10
-0.75
  20
-0.336
  0
VERTEX
  8
NA
  10
-1.05
  20
-0.406
  0
VERTEX
  8
NA
  10
-1.382
  20
-0.458
  0
VERTEX
  8
NA
  10
-1.735
  20
-0.489
  0
VERTEX
  8
NA
  10
-2.1
  20
-0.5
  0
VERTEX
  8
NA
  10
-2.09
  20
-0.5
  0
VERTEX
  8
NA
  10
-2.094
  20
-0.6
  0
VERTEX
  8
NA
  10
-2.1
  20
-0.6
  0
VERTEX
  8
NA
  10
-2.204
  20
-0.603
  0
VERTEX
  8
NA
  10
-2.305
  20
-0.612
  0
VERTEX
  8
NA
  10
-2.4
  20
-0.627
  0
VERTEX
  8
NA
  10
-2.465
  20
-0.642
  0
VERTEX
  8
NA
  10
-2.465
  20
-0.534
  0
VERTEX
  8
NA
  10
-2.374
  20
-0.518
  0
VERTEX
  8
NA
  10
-2.239
  20
-0.505
  0
VERTEX
  8
NA
  10
-2.1
  20
-0.5
  0
VERTEX
  8
NA
  10
-2.465
  20
-0.489
  0
VERTEX
  8
NA
  10
-2.818
  20
-0.458
  0
VERTEX
  8
NA
  10
-3.05
  20
-0.422
  0
VERTEX
  8
NA
  10
-3.05
  20
-0.233
  0
VERTEX
  8
NA
  10
-2.75
  20
-0.27
  0
VERTEX
  8
NA
  10
-2.43
  20
-0.292
  0
VERTEX
  8
NA
  10
-2.1
  20
-0.3
  0
VERTEX
  8
NA
  10
-1.77
  20
-0.292
  0
VERTEX
  8
NA
  10
-1.45
  20
-0.27
  0
VERTEX
  8
NA
  10
-1.15
  20
-0.233
  0
VERTEX
  8
NA
  10
-0.879
  20
-0.183
  0
VERTEX
  8
NA
  10
-0.855
  20
-0.177
  0
VERTEX
  8
NA
  10
-0.897
  20
-0.166
  0
VERTEX
  8
NA
  10
-0.941
  20
-0.145
  0
VERTEX
  8
NA
  10
-0.982
  20
-0.117
  0
VERTEX
  8
NA
  10
-1.017
  20
-0.082
  0
VERTEX
  8
NA
  10
-1.045
  20
-0.041
  0
VERTEX
  8
NA
  10
-1.066
  20
0.003
  0
VERTEX
  8
NA
  10
-1.079
  20
0.051
  0
VERTEX
  8
NA
  10
-1.083
  20
0.1
  0
VERTEX
  8
NA
  10
-1.079
  20
0.149
  0
VERTEX
  8
NA
  10
-1.066
  20
0.197
  0
VERTEX
  8
NA
  10
-1.057
  20
0.216
  0
VERTEX
  8
NA
  10
-0.916
  20
0.357
  0
VERTEX
  8
NA
  10
-0.897
  20
0.366
  0
VERTEX
  8
NA
  10
-0.849
  20
0.379
  0
VERTEX
  8
NA
  10
-0.8
  20
0.383
  0
VERTEX
  8
NA
  10
-0.751
  20
0.379
  0
VERTEX
  8
NA
  10
-0.703
  20
0.366
  0
VERTEX
  8
NA
  10
-0.659
  20
0.345
  0
VERTEX
  8
NA
  10
-0.618
  20
0.317
  0
VERTEX
  8
NA
  10
-0.583
  20
0.282
  0
VERTEX
  8
NA
  10
-0.555
  20
0.241
  0
VERTEX
  8
NA
  10
-0.534
  20
0.197
  0
VERTEX
  8
NA
  10
-0.521
  20
0.149
  0
VERTEX
  8
NA
  10
-0.517
  20
0.1
  0
VERTEX
  8
NA
  10
-0.521
  20
0.051
  0
VERTEX
  8
NA
  10
-0.534
  20
0.003
  0
VERTEX
  8
NA
  10
-0.555
  20
-0.041
  0
VERTEX
  8
NA
  10
-0.583
  20
-0.082
  0
VERTEX
  8
NA
  10
-0.61
  20
-0.108
  0
VERTEX
  8
NA
  10
-0.455
  20
-0.05
  0
VERTEX
  8
NA
  10
-0.315
  20
0.029
  0
VERTEX
  8
NA
  10
-0.229
  20
0.113
  0
VERTEX
  8
NA
  10
-0.2
  20
0.2
  0
VERTEX
  8
NA
  10
-0.229
  20
0.287
  0
VERTEX
  8
NA
  10
-0.315
  20
0.371
  0
VERTEX
  8
NA
  10
-0.455
  20
0.45
  0
VERTEX
  8
NA
  10
-0.645
  20
0.521
  0
VERTEX
  8
NA
  10
-0.879
  20
0.583
  0
VERTEX
  8
NA
  10
-1.15
  20
0.633
  0
VERTEX
  8
NA
  10
-1.197
  20
0.639
  0
VERTEX
  8
NA
  10
-0.916
  20
0.357
  0
VERTEX
  8
NA
  10
-1.057
  20
0.216
  0
VERTEX
  8
NA
  10
-1.47
  20
0.629
  0
VERTEX
  8
NA
  10
-1.666
  20
0.612
  0
VERTEX
  8
NA
  10
-2.1
  20
0.6
  0
VERTEX
  8
NA
  10
-2.534
  20
0.612
  0
VERTEX
  8
NA
  10
-2.938
  20
0.647
  0
VERTEX
  8
NA
  10
-3.05
  20
0.633
  0
VERTEX
  8
NA
  10
-3.321
  20
0.583
  0
VERTEX
  8
NA
  10
-3.555
  20
0.521
  0
VERTEX
  8
NA
  10
-3.745
  20
0.45
  0
VERTEX
  8
NA
  10
-3.885
  20
0.371
  0
VERTEX
  8
NA
  10
-3.971
  20
0.287
  0
VERTEX
  8
NA
  10
-4
  20
0.2
  0
VERTEX
  8
NA
  10
-3.971
  20
0.113
  0
VERTEX
  8
NA
  10
-3.885
  20
0.029
  0
VERTEX
  8
NA
  10
-3.745
  20
-0.05
  0
VERTEX
  8
NA
  10
-3.555
  20
-0.121
  0
VERTEX
  8
NA
  10
-3.321
  20
-0.183
  0
VERTEX
  8
NA
  10
-3.05
  20
-0.233
  0
VERTEX
  8
NA
  10
-3.05
  20
-0.422
  0
VERTEX
  8
NA
  10
-3.15
  20
-0.406
  0
VERTEX
  8
NA
  10
-3.45
  20
-0.336
  0
VERTEX
  8
NA
  10
-3.709
  20
-0.25
  0
VERTEX
  8
NA
  10
-3.819
  20
-0.197
  0
VERTEX
  8
NA
  10
-3.613
  20
-0.403
  0
VERTEX
  8
NA
  10
-3.277
  20
-0.639
  0
VERTEX
  8
NA
  10
-2.905
  20
-0.812
  0
VERTEX
  8
NA
  10
-2.897
  20
-0.814
  0
VERTEX
  8
NA
  10
-2.9
  20
-0.8
  0
VERTEX
  8
NA
  10
-2.888
  20
-0.748
  0
VERTEX
  8
NA
  10
-2.852
  20
-0.697
  0
VERTEX
  8
NA
  10
-2.793
  20
-0.65
  0
VERTEX
  8
NA
  10
-2.713
  20
-0.607
  0
VERTEX
  8
NA
  10
-2.614
  20
-0.57
  0
VERTEX
  8
NA
  10
-2.5
  20
-0.54
  0
VERTEX
  8
NA
  10
-2.465
  20
-0.534
  0
VERTEX
  8
NA
  10
-2.465
  20
-0.642
  0
VERTEX
  8
NA
  10
-2.486
  20
-0.647
  0
VERTEX
  8
NA
  10
-2.56
  20
-0.671
  0
VERTEX
  8
NA
  10
-2.62
  20
-0.7
  0
VERTEX
  8
NA
  10
-2.664
  20
-0.732
  0
VERTEX
  8
NA
  10
-2.691
  20
-0.765
  0
VERTEX
  8
NA
  10
-2.7
  20
-0.8
  0
VERTEX
  8
NA
  10
-2.691
  20
-0.835
  0
VERTEX
  8
NA
  10
-2.664
  20
-0.868
  0
VERTEX
  8
NA
  10
-2.645
  20
-0.882
  0
VERTEX
  8
NA
  10
-2.509
  20
-0.918
  0
VERTEX
  8
NA
  10
-2.1
  20
-0.954
  0
VERTEX
  8
NA
  10
-1.961
  20
-0.942
  0
VERTEX
  8
NA
  10
-1.961
  20
-1.095
  0
VERTEX
  8
NA
  10
-2.024
  20
-1.098
  0
VERTEX
  8
NA
  10
-2.1
  20
-1.104
  0
VERTEX
  8
NA
  10
-2.176
  20
-1.098
  0
VERTEX
  8
NA
  10
-2.239
  20
-1.095
  0
VERTEX
  8
NA
  10
-2.374
  20
-1.082
  0
VERTEX
  8
NA
  10
-2.393
  20
-1.079
  0
VERTEX
  8
NA
  10
-2.535
  20
-1.066
  0
VERTEX
  8
NA
  10
-2.956
  20
-0.953
  0
VERTEX
  8
NA
  10
-3.352
  20
-0.769
  0
VERTEX
  8
NA
  10
-3.71
  20
-0.518
  0
VERTEX
  8
NA
  10
-4.018
  20
-0.21
  0
VERTEX
  8
NA
  10
-4.269
  20
0.148
  0
VERTEX
  8
NA
  10
-4.453
  20
0.544
  0
VERTEX
  8
NA
  10
-4.566
  20
0.965
  0
VERTEX
  8
NA
  10
-4.568
  20
0.991
  0
VERTEX
  8
NA
  10
-4.418
  20
0.991
  0
VERTEX
  8
NA
  10
-4.312
  20
0.595
  0
VERTEX
  8
NA
  10
-4.174
  20
0.299
  0
VERTEX
  8
NA
  10
-4.168
  20
0.322
  0
VERTEX
  8
NA
  10
-4.073
  20
0.439
  0
VERTEX
  8
NA
  10
-3.919
  20
0.55
  0
VERTEX
  8
NA
  10
-3.709
  20
0.65
  0
VERTEX
  8
NA
  10
-3.462
  20
0.732
  0
VERTEX
  8
NA
  10
-3.578
  20
0.758
  0
VERTEX
  8
NA
  10
-3.578
  20
0.94
  0
VERTEX
  8
NA
  10
-3.25
  20
0.88
  0
VERTEX
  8
NA
  10
-2.926
  20
0.841
  0
VERTEX
  8
NA
  10
-2.818
  20
0.858
  0
VERTEX
  8
NA
  10
-2.465
  20
0.889
  0
VERTEX
  8
NA
  10
-2.1
  20
0.9
  0
VERTEX
  8
NA
  10
-1.735
  20
0.889
  0
VERTEX
  8
NA
  10
-1.73
  20
0.889
  0
VERTEX
  8
NA
  10
-2.67
  20
1.829
  0
VERTEX
  8
NA
  10
-2.818
  20
1.842
  0
VERTEX
  8
NA
  10
-3.15
  20
1.894
  0
VERTEX
  8
NA
  10
-3.256
  20
1.919
  0
VERTEX
  8
NA
  10
-3.578
  20
1.86
  0
VERTEX
  8
NA
  10
-3.862
  20
1.786
  0
VERTEX
  8
NA
  10
-4.092
  20
1.7
  0
VERTEX
  8
NA
  10
-4.261
  20
1.605
  0
VERTEX
  8
NA
  10
-4.365
  20
1.504
  0
VERTEX
  8
NA
  10
-4.4
  20
1.4
  0
VERTEX
  8
NA
  10
-4.365
  20
1.296
  0
VERTEX
  8
NA
  10
-4.261
  20
1.195
  0
VERTEX
  8
NA
  10
-4.092
  20
1.1
  0
VERTEX
  8
NA
  10
-3.862
  20
1.014
  0
VERTEX
  8
NA
  10
-3.578
  20
0.94
  0
VERTEX
  8
NA
  10
-3.578
  20
0.758
  0
VERTEX
  8
NA
  10
-3.707
  20
0.787
  0
VERTEX
  8
NA
  10
-4.015
  20
0.886
  0
VERTEX
  8
NA
  10
-4.265
  20
1
  0
VERTEX
  8
NA
  10
-4.429
  20
1.113
  0
VERTEX
  8
NA
  10
-4.418
  20
0.991
  0
VERTEX
  8
NA
  10
-4.568
  20
0.991
  0
VERTEX
  8
NA
  10
-4.604
  20
1.4
  0
VERTEX
  8
NA
  10
-4.566
  20
1.835
  0
VERTEX
  8
NA
  10
-4.467
  20
2.205
  0
VERTEX
  8
NA
  10
-4.312
  20
2.205
  0
VERTEX
  8
NA
  10
-4.418
  20
1.809
  0
VERTEX
  8
NA
  10
-4.429
  20
1.687
  0
VERTEX
  8
NA
  10
-4.265
  20
1.8
  0
VERTEX
  8
NA
  10
-4.015
  20
1.914
  0
VERTEX
  8
NA
  10
-3.707
  20
2.013
  0
VERTEX
  8
NA
  10
-3.641
  20
2.028
  0
VERTEX
  8
NA
  10
-3.709
  20
2.05
  0
VERTEX
  8
NA
  10
-3.919
  20
2.15
  0
VERTEX
  8
NA
  10
-4.073
  20
2.261
  0
VERTEX
  8
NA
  10
-4.168
  20
2.378
  0
VERTEX
  8
NA
  10
-4.191
  20
2.465
  0
VERTEX
  8
NA
  10
-4.312
  20
2.205
  0
VERTEX
  8
NA
  10
-4.467
  20
2.205
  0
VERTEX
  8
NA
  10
-4.453
  20
2.256
  0
VERTEX
  8
NA
  10
-4.269
  20
2.652
  0
VERTEX
  8
NA
  10
-4.018
  20
3.01
  0
VERTEX
  8
NA
  10
-3.71
  20
3.318
  0
VERTEX
  8
NA
  10
-3.352
  20
3.569
  0
VERTEX
  8
NA
  10
-2.956
  20
3.753
  0
VERTEX
  8
NA
  10
-2.535
  20
3.866
  0
VERTEX
  8
NA
  10
-2.393
  20
3.879
  0
VERTEX
  8
NA
  10
-2.374
  20
3.882
  0
VERTEX
  8
NA
  10
-2.239
  20
3.895
  0
VERTEX
  8
NA
  10
-2.176
  20
3.898
  0
VERTEX
  8
NA
  10
-2.1
  20
3.904
  0
SEQEND
  0
ENDSEC
  0
EOF
